# xmcd
#
# Track frame offsets:
# 150
# 50352
# 97811
# 156406
#
# Disc length: 2619 seconds
#
# Revision: 0
# Processed by: cddbd v1.5.2PL0 Copyright (c) Steve Scherf et al.
# Submitted via: Audion 3.0.2 (http://www.panic.com/audion/)
#
DISCID=270a3904
DTITLE=Steps Ahead Bottom Line NYC 7.10.85 - Steps Ahead Bottom Line NYC 7.10.85
DYEAR=1900
DGENRE=
TTITLE0=1
TTITLE1=2
TTITLE2=3
TTITLE3=4
EXTD=
EXTT0=
EXTT1=
EXTT2=
EXTT3=
PLAYORDER=
